<svg width="40" height="40" viewBox="0 0 40 40" fill="none" xmlns="http://www.w3.org/2000/svg">
<path fill-rule="evenodd" clip-rule="evenodd" d="M20.9456 0.991985C20.6437 0.862563 20.3285 0.797852 20 0.797852C19.6716 0.797852 19.3564 0.862563 19.0544 0.991985L2.25444 8.19199C1.81194 8.38049 1.45808 8.67537 1.19286 9.07663C0.927649 9.47788 0.795044 9.919 0.795044 10.4C0.795044 10.881 0.927649 11.3221 1.19286 11.7233C1.45808 12.1246 1.81194 12.4195 2.25444 12.608L8.60004 15.3224C8.71781 15.1892 8.84877 15.0705 8.99294 14.9665C9.1371 14.8624 9.29093 14.7754 9.45444 14.7056L19.0544 10.592C19.6659 10.3195 20.2833 10.3053 20.9066 10.5494C21.5299 10.7935 21.9735 11.2232 22.2373 11.8384C22.501 12.4537 22.5065 13.0712 22.2535 13.691C22.0005 14.3108 21.5646 14.7482 20.9456 15.0032L14.4008 17.8112L19.0568 19.8056C19.3584 19.9347 19.6732 19.9992 20.0012 19.9992C20.3293 19.9992 20.6441 19.9347 20.9456 19.8056L37.7456 12.6056C38.1866 12.4164 38.5392 12.1215 38.8033 11.7208C39.0674 11.3201 39.1994 10.8799 39.1994 10.4C39.1994 9.92011 39.0674 9.47984 38.8033 9.07918C38.5392 8.67851 38.1866 8.38358 37.7456 8.19439L20.9456 0.991985ZM3.94404 18.5528L8.00004 20.288V30.1328C7.58454 30.0383 7.16661 29.9562 6.74624 29.8866C6.32587 29.8169 5.9038 29.7598 5.48004 29.7152C4.91655 29.656 4.43448 29.426 4.03384 29.0254C3.63319 28.6247 3.40326 28.1427 3.34404 27.5792C3.18623 26.0683 3.15769 24.5549 3.25842 23.0392C3.35915 21.5234 3.58769 20.0295 3.94404 18.5528ZM18.32 35.7752C17.5089 34.9792 16.6404 34.2517 15.7147 33.5924C14.789 32.9331 13.8175 32.3503 12.8 31.844V22.3472L17.1632 24.2192C18.069 24.6075 19.0146 24.8016 20 24.8016C20.9855 24.8016 21.9311 24.6075 22.8368 24.2192L36.056 18.5528C36.4145 20.0292 36.6441 21.5254 36.7448 23.0414C36.8456 24.5573 36.816 26.0707 36.656 27.5816C36.5968 28.1451 36.3669 28.6271 35.9662 29.0278C35.5656 29.4284 35.0835 29.6584 34.52 29.7176C32.0991 29.972 29.7878 30.6186 27.5862 31.6572C25.3846 32.6959 23.4159 34.0685 21.68 35.7752C21.2134 36.2326 20.6534 36.4612 20 36.4612C19.3467 36.4612 18.7867 36.2326 18.32 35.7752ZM10.4 39.2C11.0628 39.2 11.6285 38.9657 12.0971 38.497C12.5657 38.0284 12.8 37.4627 12.8 36.8V31.844C12.0368 31.4648 11.2538 31.1323 10.451 30.8465C9.64813 30.5607 8.83115 30.3212 8.00004 30.1328V36.8C8.00004 37.4627 8.23436 38.0284 8.70299 38.497C9.17161 38.9657 9.7373 39.2 10.4 39.2Z" fill="#2563EB"/>
</svg>
